<?xml version="1.0" encoding="UTF-8"?>
<svg id="SVGDoc" width="15" height="11" xmlns="http://www.w3.org/2000/svg" version="1.1" xmlns:xlink="http://www.w3.org/1999/xlink" xmlns:avocode="https://avocode.com/" viewBox="0 0 15 11"><defs></defs><desc>Generated with Avocode.</desc><g><g><title>Mail</title><path d="M13.99904,-0.0082c0,0 0.96829,0.01939 0.96829,1.0194l-5.99944,5.42086c0,0 -1.34215,1.09409 -2.99837,0l-5.92666,-5.45216c0,0 -0.01675,-0.98811 0.95785,-0.98811zM-0.00017,1.9997l3.01774,2.97948l-2.03128,4.78122l2.91943,-3.73416l1.87544,1.50484c0,0 2.15918,1.04361 3.33332,0.03129l1.86553,-1.55966l3.03006,4.0038l-2.05171,-4.99259l3.04155,-3.01421v8.0627c0,0 -0.06241,0.93743 -1.09371,0.93743h-12.87509c0,0 -1.0313,-0.09368 -1.0313,-0.99992z" fill="#868686" fill-opacity="1"></path></g></g></svg>