<?xml version="1.0" encoding="UTF-8"?>
<svg id="SVGDoc" width="15" height="11" xmlns="http://www.w3.org/2000/svg" version="1.1" xmlns:xlink="http://www.w3.org/1999/xlink" xmlns:avocode="https://avocode.com/" viewBox="0 0 15 11"><defs></defs><desc>Generated with Avocode.</desc><g><g><title>Phone</title><path d="M9.71966,3.41163c0.67366,0.29493 1.39239,0.78677 1.94694,1.6064l1.30204,3.33335v1.63533c0,0.95839 -1.04166,1.00001 -1.04166,1.00001h-8.89581c-1.08334,0 -1.00006,-1.00001 -1.00006,-1.00001l0,-1.70738c0.01788,0.1965 1.21883,-3.27163 1.21883,-3.27163c0.40638,-0.79257 1.20456,-1.27683 2.01333,-1.57284v-0.52107c0,0 -0.04461,-0.92178 0.97099,-0.92178h2.50007c0,0 1.01553,-0.01555 1.01553,1.00001zM2.03111,8.27934c-0.00027,-0.00294 -0.00027,-0.0067 0,-0.0113zM3.8618,1.8566c0.10417,0.25576 0.42433,0.81048 0.42433,0.81048l-3.5554,1.80203l-0.60923,-1.22734c0,0 -0.66871,-1.12411 0.6117,-1.79141l1.04016,-0.55915c0,0 2.14836,-0.94609 5.35153,-0.94609h0.62507c4.06241,0 5.47658,0.94609 5.47658,0.94609l1.04009,0.55915c1.28034,0.6673 0.61163,1.79141 0.61163,1.79141l-0.65083,1.22734l-3.51372,-1.80203c0,0 0.25565,-0.37818 0.41959,-0.78106c0.02763,-0.06787 0.04609,-0.09218 0.05356,-0.09951c-0.00884,0.00402 -0.03362,0.00744 -0.07707,-0.0295c-0.9568,-0.81501 -3.23494,-0.81196 -3.23494,-0.81196h-0.74997c-1.56257,0 -3.21879,0.70312 -3.21879,0.70312c-0.07803,0.04694 -0.15771,0.00197 -0.04431,0.20843z" fill="#868686" fill-opacity="1"></path></g></g></svg>