<?xml version="1.0" encoding="UTF-8"?>
<svg id="SVGDoc" width="8" height="9" xmlns="http://www.w3.org/2000/svg" version="1.1" xmlns:xlink="http://www.w3.org/1999/xlink" xmlns:avocode="https://avocode.com/" viewBox="0 0 8 9"><defs><mask id="Mask1018" x="-1" y="-1" width="2" height="2"><rect width="9" height="9" x="-1" y="0" fill="#ffffff"></rect><path d="M-0.17643,8.98433v0l3.91048,-4.56679v0l-3.91048,-4.44201v0h3.31702v0l3.91078,4.44201v0l-3.91078,4.56679v0z" fill="#000000"></path></mask><filter id="Filter1022" width="29.5" height="29.9" x="-11" y="-10" filterUnits="userSpaceOnUse"><feOffset dx="0.5" dy="0.9" result="FeOffset1023Out" in="SourceGraphic"></feOffset><feGaussianBlur stdDeviation="0 0" result="FeGaussianBlur1024Out" in="FeOffset1023Out"></feGaussianBlur></filter></defs><desc>Generated with Avocode.</desc><g><g><title>Arrow</title><g filter="url(#Filter1022)"><path d="M-0.17643,8.98433v0l3.91048,-4.56679v0l-3.91048,-4.44201v0h3.31702v0l3.91078,4.44201v0l-3.91078,4.56679v0z" fill="none" stroke-opacity="0.15" stroke-width="0" mask="url(&quot;#Mask1018&quot;)"></path><path d="M-0.17643,8.98433v0l3.91048,-4.56679v0l-3.91048,-4.44201v0h3.31702v0l3.91078,4.44201v0l-3.91078,4.56679v0z" fill="#000000" fill-opacity="0.15"></path></g><path d="M-0.17643,8.98433v0l3.91048,-4.56679v0l-3.91048,-4.44201v0h3.31702v0l3.91078,4.44201v0l-3.91078,4.56679v0z" fill="#ffffff" fill-opacity="1"></path></g></g></svg>