<?xml version="1.0" encoding="UTF-8"?>
<svg id="SVGDoc" width="97" height="28" xmlns="http://www.w3.org/2000/svg" version="1.1" xmlns:xlink="http://www.w3.org/1999/xlink" xmlns:avocode="https://avocode.com/" viewBox="0 0 97 28"><defs><mask id="Mask1038" x="-1" y="-1" width="2" height="2"><rect width="95" height="24" x="1" y="1" fill="#ffffff"></rect><path d="M0.99993,0.99993v0h95.00001v0v24.00006v0h-95.00001v0z" fill="#000000"></path></mask><filter id="Filter1042" width="117" height="48" x="-10" y="-10" filterUnits="userSpaceOnUse"><feOffset dx="0" dy="2" result="FeOffset1043Out" in="SourceGraphic"></feOffset><feGaussianBlur stdDeviation="0.4 0.4" result="FeGaussianBlur1044Out" in="FeOffset1043Out"></feGaussianBlur></filter><linearGradient id="LinearGradient1046" gradientUnits="userSpaceOnUse" x1="47.99993759393692" y1="24.999989092350006" x2="48.99992996454239" y2="0.9999299645423889"><stop stop-opacity="0.15" stop-color="#000000" offset="0"></stop><stop stop-opacity="0.15" stop-color="#ffffff" offset="1"></stop></linearGradient><filter id="Filter1064" width="200%" height="200%" x="-50%" y="-50%"><feGaussianBlur stdDeviation="0 0" result="FeGaussianBlur1065Out" in="SourceGraphic"></feGaussianBlur></filter><mask id="Mask1066"><path d="M0.99993,0.99993v0h95.00001v0v24.00006v0h-95.00001v0z" fill="#ffffff"></path></mask><clipPath id="ClipPath1069"><path d="M0,26v-26h97v26zM0.99993,24.99999h95.00001v-24.00006h-95.00001z" fill="#ffffff"></path></clipPath></defs><desc>Generated with Avocode.</desc><g><g><title>Button</title><g filter="url(#Filter1042)"><path d="M0.99993,0.99993v0h95.00001v0v24.00006v0h-95.00001v0z" fill="none" stroke-opacity="0.7" stroke-width="0" mask="url(&quot;#Mask1038&quot;)"></path><path d="M0.99993,0.99993v0h95.00001v0v24.00006v0h-95.00001v0z" fill="#000000" fill-opacity="0.7"></path></g><path d="M0.99993,0.99993v0h95.00001v0v24.00006v0h-95.00001v0z" fill="#7cbe5c" fill-opacity="1"></path><path d="M0.99993,0.99993v0h95.00001v0v24.00006v0h-95.00001v0z" fill="url(#LinearGradient1046)"></path><path d="M1,26v-0.00001h94.99994v-24.00006l-94.99994,0v-1.99993h95v26zM0.99993,25.99999l0.00007,0l0,-24.00006h-0.00007z" fill="#ffffff" fill-opacity="0.25" stroke-opacity="0.25" stroke-width="0" stroke="#ffffff" filter="url(#Filter1064)" mask="url(&quot;#Mask1066&quot;)"></path><path d="M0.99993,0.99993v0h95.00001v0v24.00006v0h-95.00001v0z" fill-opacity="0" fill="#ffffff" stroke-linejoin="round" stroke-linecap="round" stroke-opacity="1" stroke="#6aa24f" stroke-miterlimit="20" stroke-width="2" clip-path="url(&quot;#ClipPath1069&quot;)"></path></g></g></svg>